# xmcd
#
# Track frame offsets:
#       150
#       14382
#       33262
#       50985
#       65737
#       80979
#       97557
#       116410
#       134000
#       148350
#
# Disc length: 2201 seconds
#
# Revision: 1
# Processed by: cddbd v1.5.1PL2 Copyright (c) Steve Scherf et al.
# Submitted via: MusiCat 1.1
#
DISCID=9408970a
DTITLE=Buster Poindexter - Hot Hot Hot
DYEAR=2006
DGENRE=
TTITLE0=Bad Boy
TTITLE1=Hot Hot Hot
TTITLE2=Smack Dab In The Middle
TTITLE3=Hit The Road Jack
TTITLE4=Who Threw The Whiskey In The Well
TTITLE5=Good Morning Judge
TTITLE6=Juicy Lucy
TTITLE7=Oh Me Oh My (I'm A Fool For You Baby)
TTITLE8=Deep In A Dream
TTITLE9=House Of The Rising Sun
EXTD=Sony\n646\n
EXTT0=
EXTT1=
EXTT2=
EXTT3=
EXTT4=
EXTT5=
EXTT6=
EXTT7=
EXTT8=
EXTT9=
PLAYORDER=
